#N canvas 529 474 450 300 10;
#X obj 61 195 osc~;
#X obj 60 239 dac~;
#X obj 58 22 receive hAngle;
#X obj 59 70 * 100;
#X obj 59 110 + 300;
#X floatatom 61 151 5 0 0 0 - - -, f 5;
#X connect 0 0 1 0;
#X connect 2 0 3 0;
#X connect 3 0 4 0;
#X connect 4 0 5 0;
#X connect 5 0 0 0;
