#N canvas 399 473 584 343 10;
#X obj 210 195 osc~;
#X obj 237 260 dac~;
#X floatatom 210 151 5 0 0 0 - - -, f 5;
#X obj 207 22 receive hAngleDelta;
#X obj 85 20 receive hAngle;
#X obj 259 227 *~;
#X obj 271 71 abs;
#X obj 208 70 * -1000;
#X obj 280 190 line~;
#X obj 208 110 +;
#X obj 276 145 pack 1 200;
#X obj 143 81 + 300;
#X obj 142 54 * 100;
#X connect 0 0 5 0;
#X connect 2 0 0 0;
#X connect 3 0 6 0;
#X connect 3 0 7 0;
#X connect 4 0 12 0;
#X connect 5 0 1 0;
#X connect 6 0 10 0;
#X connect 7 0 9 0;
#X connect 8 0 5 1;
#X connect 9 0 2 0;
#X connect 10 0 8 0;
#X connect 11 0 9 1;
#X connect 12 0 11 0;
